<?xml version="1.0" encoding="UTF-8"?><svg id="a" xmlns="http://www.w3.org/2000/svg" xmlns:xlink="http://www.w3.org/1999/xlink" viewBox="0 0 545.52 236.4"><defs><style>.d{fill:#fff;}.e{fill:#f9fff1;filter:url(#b);}.f{fill:#006837;}.g{fill:#0072d5;}</style><filter id="b" filterUnits="userSpaceOnUse"><feOffset dx="0" dy="0"/><feGaussianBlur result="c" stdDeviation="10"/><feFlood flood-color="#000" flood-opacity=".49"/><feComposite in2="c" operator="in"/><feComposite in="SourceGraphic"/></filter></defs><path class="e" d="M38.12,56.32c15.659-21.638,46.299-23.347,58-24,37.321-2.082,54.611,14.594,85,24,51.372,15.902,64.407-12.424,166-22,64.492-6.079,115.838-10.205,145,22,21.363,23.592,22.535,57.531,23,71,.583,16.897,2.084,60.361-22,75-24.063,14.625-44.87-17.024-100-9-22.406,3.261-29.393,10.006-48.087,6.479-16.727-3.155-24.566-10.687-49.222-15.801-7.449-1.545-15.915-2.528-26.691-2.678-57.36-.798-67.689,23.107-143,22-63.951-.94-79.291-18.503-84-25-8.515-11.749-9.343-27.5-11-59-1.743-33.143-2.615-49.714,7-63Z"/><g><path d="M134.666,174.273h-22.59V98.816l-16.321,48.968h-15.671l-16.321-48.968v75.457h-21.407V61.58h26.375l19.811,56.536,19.751-56.536h26.375v112.693Z"/><path class="g" d="M185.274,165.267c-.896,1.11-2.008,2.447-3.335,4.011-1.328,1.564-2.579,2.8-3.752,3.708-1.637,1.211-3.335,2.106-5.095,2.688-1.76,.579-3.69,.87-5.79,.87-4.941,0-9.079-2.497-12.414-7.493-3.335-4.994-5.002-11.377-5.002-19.147,0-6.206,.849-11.276,2.548-15.212,1.698-3.936,4.106-7.039,7.226-9.31,3.088-2.271,6.917-3.885,11.487-4.844,4.57-.958,9.311-1.665,14.221-2.119v-.454c0-4.692-1.174-7.934-3.521-9.726-2.347-1.79-5.806-2.687-10.375-2.687-2.749,0-5.683,.795-8.801,2.384-3.12,1.59-5.358,2.813-6.717,3.671h-1.528v-20.511c1.76-.757,4.624-1.651,8.592-2.687,3.968-1.033,7.944-1.552,11.927-1.552,9.48,0,16.328,2.385,20.543,7.152,4.215,4.769,6.323,12.249,6.323,22.44v57.822h-16.536v-9.006Zm0-13.227v-17.652c-2.254,.303-4.694,.718-7.319,1.245-2.625,.527-4.617,1.144-5.975,1.848-1.667,.855-2.941,2.101-3.821,3.734-.88,1.635-1.32,3.784-1.32,6.45,0,1.761,.093,3.194,.278,4.301,.186,1.107,.648,2.163,1.39,3.168,.71,1.007,1.559,1.748,2.548,2.226,.988,.478,2.532,.717,4.632,.717,1.667,0,3.358-.553,5.072-1.659s3.219-2.564,4.516-4.377Z"/><path d="M267.895,141.128c-.51,7.956-1.633,14.607-3.369,19.957-1.736,5.349-3.95,9.479-6.643,12.391-2.697,2.961-5.854,5.021-9.471,6.18-3.618,1.158-7.645,1.596-12.083,1.311-3.605-.231-7.135-.812-10.587-1.74-3.453-.931-6.426-1.98-8.918-3.151l1.361-21.223,2.031,.13c1.947,1.439,4.347,2.793,7.201,4.064,2.854,1.27,5.435,1.979,7.743,2.127,3.077,.197,5.607-.108,7.59-.916,1.983-.809,3.537-2.036,4.663-3.683,1.057-1.551,1.882-3.57,2.474-6.06,.592-2.49,1.002-5.497,1.228-9.022l.102-1.586c-2.172,2.541-4.524,4.514-7.055,5.918-2.531,1.405-5.29,2.012-8.276,1.82-7.264-.466-12.636-4.4-16.117-11.803-3.481-7.402-4.753-18.405-3.817-33.008,.449-6.998,1.437-13.002,2.963-18.012,1.526-5.008,3.503-9.331,5.931-12.967,2.257-3.394,4.935-5.979,8.03-7.752,3.096-1.772,6.199-2.56,9.308-2.36,2.801,.18,5.313,.885,7.537,2.114,2.223,1.23,4.212,2.861,5.967,4.895l.845-3.737,16.177,1.037-4.815,75.076Zm-15.597-18.064l2.466-38.444c-.912-.715-2.047-1.307-3.406-1.773-1.36-.466-2.593-.734-3.699-.806-4.367-.28-7.773,1.562-10.219,5.525-2.446,3.965-3.905,9.621-4.376,16.973-.523,8.157,.041,13.907,1.695,17.248,1.653,3.343,4.31,5.131,7.968,5.365,1.66,.106,3.317-.216,4.971-.971,1.654-.753,3.187-1.792,4.6-3.117Z"/><path d="M328.456,136.81h-38.168c.248,6.66,1.799,11.757,4.656,15.287,2.855,3.533,7.062,5.299,12.621,5.299,3.521,0,6.934-1.034,10.236-3.104,3.305-2.068,5.914-4.288,7.828-6.66h1.854v21.873c-3.768,2.473-7.318,4.264-10.654,5.373-3.334,1.109-7.025,1.665-11.07,1.665-10.438,0-18.436-3.834-23.992-11.504-5.559-7.669-8.338-18.592-8.338-32.771,0-14.027,2.631-25.14,7.897-33.339s12.484-12.299,21.654-12.299c8.461,0,14.822,3.494,19.084,10.482s6.393,17.041,6.393,30.159v9.537Zm-16.582-15.97c-.094-5.701-.957-9.99-2.594-12.866s-4.186-4.314-7.643-4.314c-3.213,0-5.854,1.362-7.922,4.087s-3.227,7.09-3.473,13.094h21.631Z"/><path d="M372.785,135.069h-35.343v-21.797h35.343v21.797Z"/><path class="f" d="M423.6,152.497c.106,3.969,.827,6.816,2.163,8.541,1.334,1.723,3.617,2.586,6.849,2.586,1.094,0,2.389-.279,3.885-.838,1.495-.559,2.536-1.057,3.124-1.495h1.521v15.739c-1.495,.516-3.117,.973-4.866,1.371-1.749,.397-4.426,.597-8.03,.597-3.178,0-5.947-.589-8.311-1.766-2.362-1.177-4.332-2.841-5.907-4.994-1.549-2.114-2.71-4.606-3.484-7.478-.774-2.872-1.229-6.062-1.361-9.571-8.919-.758-15.867-5.214-20.847-13.37-4.98-8.155-7.47-19.072-7.47-32.751,0-14.316,2.724-25.633,8.171-33.948,5.446-8.314,12.962-12.472,22.548-12.472s17.075,4.157,22.549,12.472c5.474,8.315,8.21,19.632,8.21,33.948,0,10.568-1.602,19.691-4.806,27.367-3.204,7.678-7.85,13.031-13.938,16.062Zm-1.643-20.877c1.495-2.711,2.604-5.911,3.324-9.601,.722-3.688,1.082-8.025,1.082-13.012,0-5.343-.414-9.89-1.242-13.639-.827-3.748-1.909-6.779-3.244-9.093-1.361-2.393-2.931-4.127-4.706-5.204-1.775-1.076-3.624-1.615-5.547-1.615-1.949,0-3.784,.52-5.507,1.556-1.722,1.037-3.304,2.752-4.746,5.145-1.335,2.233-2.423,5.314-3.264,9.242-.841,3.929-1.262,8.485-1.262,13.669,0,5.304,.406,9.82,1.222,13.549,.814,3.729,1.889,6.771,3.224,9.123,1.335,2.354,2.897,4.088,4.687,5.204,1.788,1.117,3.671,1.675,5.646,1.675s3.858-.568,5.647-1.705c1.788-1.136,3.351-2.901,4.686-5.294Z"/><path d="M511.624,169.643h-18.816l-16.252-37.928h-7.138v37.928h-15.325V66.211h25.837c3.53,0,6.565,.347,9.107,1.042,2.54,.694,4.921,2.199,7.141,4.515,2.247,2.316,4.032,5.314,5.356,8.996s1.985,8.301,1.985,13.857c0,7.642-1.022,13.87-3.068,18.687-2.047,4.816-4.969,8.822-8.767,12.018l19.939,44.318Zm-24.031-71.757c0-2.594-.309-4.816-.923-6.669-.616-1.852-1.672-3.311-3.17-4.376-1.043-.74-2.261-1.192-3.65-1.354-1.392-.162-3.01-.243-4.854-.243h-5.577v27.854h4.734c2.46,0,4.52-.208,6.179-.625,1.658-.416,3.049-1.365,4.172-2.848,1.069-1.435,1.852-3.021,2.348-4.759,.494-1.736,.742-4.063,.742-6.98Z"/></g><g><rect x="42.12" y="61.32" width="59" height="59"/><rect class="d" x="50.12" y="69.32" width="43" height="43"/><rect x="56.62" y="75.82" width="30" height="30"/></g><g><rect x="357.794" y="50.412" width="27.197" height="30.373" rx="3.055" ry="3.055" transform="translate(-4.842 39.461) rotate(-6.043)"/><rect class="d" x="361.482" y="54.53" width="19.822" height="22.136" rx="3.055" ry="3.055" transform="translate(-4.842 39.461) rotate(-6.043)"/><rect x="364.478" y="57.876" width="13.829" height="15.444" rx="3.055" ry="3.055" transform="translate(-4.842 39.461) rotate(-6.043)"/></g></svg>