<?xml version="1.0" encoding="UTF-8"?><svg id="a" xmlns="http://www.w3.org/2000/svg" xmlns:xlink="http://www.w3.org/1999/xlink" viewBox="0 0 121 121"><defs><style>.d{fill:#fff;}.e{letter-spacing:-.06em;}.e,.f,.g,.h{font-family:Verdana-Bold, Verdana;font-size:155px;font-weight:700;}.i{fill:#f9fff1;filter:url(#b);}.f{fill:#006837;}.g{fill:#0072d5;letter-spacing:-.01em;}.j{letter-spacing:-.01em;}</style><filter id="b" filterUnits="userSpaceOnUse"><feOffset dx="0" dy="0"/><feGaussianBlur result="c" stdDeviation="10"/><feFlood flood-color="#000" flood-opacity=".49"/><feComposite in2="c" operator="in"/><feComposite in="SourceGraphic"/></filter></defs><path class="i" d="M7,4c15.66-21.64,46.3-23.35,58-24,37.32-2.08,54.61,14.59,85,24,51.37,15.9,64.41-12.42,166-22,64.49-6.08,115.84-10.2,145,22,21.36,23.59,22.53,57.53,23,71,.58,16.9,2.08,60.36-22,75-24.06,14.63-44.87-17.02-100-9-22.41,3.26-29.39,10.01-48.09,6.48-16.73-3.16-24.57-10.69-49.22-15.8-7.45-1.55-15.91-2.53-26.69-2.68-57.36-.8-67.69,23.11-143,22-63.95-.94-79.29-18.5-84-25C2.49,114.25,1.66,98.5,0,67-1.74,33.86-2.62,17.29,7,4Z"/><text class="h" transform="translate(0 121.95) scale(.78 1)"><tspan x="0" y="0">M</tspan></text><text class="g" transform="translate(114.78 121.95) scale(.61 1)"><tspan x="0" y="0">a</tspan></text><text class="e" transform="translate(177.81 94.81) rotate(3.67) scale(.61 1)"><tspan x="0" y="0">g</tspan></text><text class="h" transform="translate(238.23 121.95) scale(.61 1)"><tspan x="0" y="0">e</tspan><tspan class="j" x="102.93" y="0">-</tspan></text><text class="f" transform="translate(345.62 101.25) scale(.53 .79)"><tspan x="0" y="0">Q</tspan></text><text class="h" transform="translate(415.35 117.32) scale(.53 .92)"><tspan x="0" y="0">R</tspan></text><g><rect x="11" y="9" width="59" height="59"/><rect class="d" x="19" y="17" width="43" height="43"/><rect x="25.5" y="23.5" width="30" height="30"/></g></svg>